<svg width="16" height="8" viewBox="0 0 16 8" fill="none" xmlns="http://www.w3.org/2000/svg">
<path d="M1.19954 0.32312C1.01979 0.322955 0.847352 0.394289 0.720247 0.521394C0.593142 0.648499 0.521808 0.820938 0.521973 1.00069V4.55747C0.521972 4.8795 0.748624 5.15703 1.06415 5.22138C1.14288 5.23757 1.19943 5.30682 1.19954 5.3872V6.75911C1.19954 7.13332 1.5029 7.43668 1.87711 7.43668C2.25133 7.43668 2.55468 7.13332 2.55468 6.75911V5.40459C2.55452 5.35968 2.57224 5.31655 2.60394 5.28474C2.63564 5.25292 2.6787 5.23504 2.72361 5.23504H13.2256C13.2706 5.23504 13.3136 5.25292 13.3453 5.28474C13.377 5.31655 13.3947 5.35968 13.3946 5.40459V6.75911C13.3946 7.13332 13.6979 7.43668 14.0721 7.43668C14.4464 7.43668 14.7497 7.13332 14.7497 6.75911V5.3872C14.7498 5.30682 14.8064 5.23757 14.8851 5.22138C15.2006 5.15703 15.4273 4.8795 15.4273 4.55747V1.00069C15.4275 0.820938 15.3561 0.648499 15.229 0.521394C15.1019 0.394289 14.9295 0.322955 14.7497 0.32312H1.19954Z" fill="black"/>
</svg>
